#!OML:ASF F:\VICON\USERDATA\INSTALL\rory7\rory7.ASF
:FULLY-SPECIFIED
:DEGREES
1068
root 0.109996 18.8913 3.62701 -2.88406 -8.54271 0.955867
lowerback 8.94211 0.568517 -3.18956
upperback 0.736891 0.382951 -1.14431
thorax -4.26426 0.236369 0.557898
lowerneck -6.70028 -7.90649 -7.83613
upperneck 16.4608 -11.2322 8.06016
head 7.02744 -5.30573 2.90348
rclavicle 5.09386e-015 7.15625e-015
rhumerus -17.2741 28.1383 -77.835
rradius 131.962
rwrist -21.439
rhand -38.4507 -5.04346
rfingers 7.12502
rthumb -11.474 -34.7095
lclavicle 5.09386e-015 7.15625e-015
lhumerus -34.6879 18.9416 67.9566
lradius 22.467
lwrist -8.16888
lhand -26.8029 21.2303
lfingers 7.12502
lthumb -0.229762 51.2099
rfemur 0 0 0
rtibia 0
rfoot 0 0
rtoes 0
lfemur 6.05004 -9.64393 -20.0679
ltibia 8.05042
lfoot -12.3134 24.542
ltoes -1.61433
1069
root 0.106837 18.8909 3.63096 -2.88433 -8.5089 0.998044
lowerback 8.96629 0.552091 -3.22921
upperback 0.689297 0.353205 -1.17868
thorax -4.3265 0.223287 0.547665
lowerneck -6.78179 -7.91147 -7.87857
upperneck 16.4138 -11.2318 8.09831
head 7.03137 -5.30352 2.91945
rclavicle 1.41634e-014 1.39149e-014
rhumerus -18.0946 28.0697 -78.4969
rradius 131.432
rwrist -21.4223
rhand -38.5268 -4.31622
rfingers 7.12502
rthumb -11.5474 -33.9781
lclavicle 1.41634e-014 1.39149e-014
lhumerus -34.716 18.7944 68.0417
lradius 22.6638
lwrist -7.79742
lhand -26.6907 21.4811
lfingers 7.12502
lthumb -0.121389 51.4608
rfemur 0 0 0
rtibia 0
rfoot 0 0
rtoes 0
lfemur 6.03461 -9.67576 -20.1083
ltibia 8.08488
lfoot -12.2806 24.5483
ltoes -1.61825
1070
root 0.102196 18.8914 3.63429 -2.87868 -8.51384 0.945532
lowerback 8.96498 0.544625 -3.1877
upperback 0.653892 0.346459 -1.18104
thorax -4.36218 0.219931 0.522526
lowerneck -6.78764 -7.89522 -7.91567
upperneck 16.2454 -11.2028 8.16483
head 6.98175 -5.2889 2.95062
rclavicle 1.95306e-014 -1.11319e-014
rhumerus -18.9828 27.9914 -79.1606
rradius 130.961
rwrist -21.4114
rhand -38.628 -4.07427
rfingers 7.12502
rthumb -11.6449 -33.7307
lclavicle 1.95306e-014 -1.11319e-014
lhumerus -34.7468 18.7422 68.0938
lradius 22.8597
lwrist -7.33718
lhand -26.5604 21.6039
lfingers 7.12502
lthumb 0.00452271 51.5837
rfemur 0 0 0
rtibia 0
rfoot 0 0
rtoes 0
lfemur 5.96794 -9.67504 -20.0367
ltibia 8.23415
lfoot -12.3061 24.5429
ltoes -1.70919
1071
root 0.0967263 18.8899 3.6372 -2.90311 -8.56412 0.798146
lowerback 8.99403 0.548177 -3.07995
upperback 0.63181 0.362023 -1.14253
thorax -4.40148 0.226612 0.499699
lowerneck -6.73629 -7.86481 -8.004
upperneck 16.0337 -11.1554 8.2742
head 6.91204 -5.26747 3.00807
rclavicle 2.09221e-014 -1.27222e-014
rhumerus -19.8454 27.9433 -79.8461
rradius 130.488
rwrist -21.3403
rhand -38.6893 -4.54583
rfingers 7.12502
rthumb -11.704 -34.1989
lclavicle 2.09221e-014 -1.27222e-014
lhumerus -34.7837 18.7552 68.1279
lradius 22.9905
lwrist -7.13162
lhand -26.4046 21.5499
lfingers 7.12502
lthumb 0.154985 51.5296
rfemur 0 0 0
rtibia 0
rfoot 0 0
rtoes 0
lfemur 5.97219 -9.63479 -19.8647
ltibia 8.37599
lfoot -12.4547 24.5006
ltoes -1.60069
1072
root 0.0930072 18.8882 3.63709 -2.92274 -8.57238 0.684259
lowerback 9.07256 0.542097 -2.99918
upperback 0.602376 0.359549 -1.11173
thorax -4.47573 0.225224 0.485864
lowerneck -6.83964 -7.8503 -8.08901
upperneck 15.9713 -11.1235 8.33587
head 6.91591 -5.25026 3.04087
rclavicle -1.21756e-015 1.23246e-014
rhumerus -20.5975 27.8736 -80.4645
rradius 129.897
rwrist -21.2642
rhand -38.6693 -4.9512
rfingers 7.12502
rthumb -11.6847 -34.6053
lclavicle -1.21756e-015 1.23246e-014
lhumerus -34.7955 18.6985 68.2107
lradius 23.074
lwrist -7.11834
lhand -26.3117 21.5286
lfingers 7.12502
lthumb 0.244665 51.5082
rfemur 0 0 0
rtibia 0
rfoot 0 0
rtoes 0
lfemur 6.01151 -9.63442 -19.7331
ltibia 8.39879
lfoot -12.5326 24.4586
ltoes -1.54614
1073
root 0.0917382 18.8885 3.63892 -2.96395 -8.51934 0.80486
lowerback 9.12315 0.52993 -3.13619
upperback 0.576176 0.324875 -1.14478
thorax -4.53106 0.211339 0.532336
lowerneck -6.98615 -7.88527 -8.09987
upperneck 15.9563 -11.1458 8.26123
head 6.93528 -5.263 3.0105
rclavicle -2.00524e-014 1.66979e-014
rhumerus -21.2868 27.7792 -81.0052
rradius 129.271
rwrist -21.1847
rhand -38.6091 -5.40148
rfingers 7.12502
rthumb -11.6267 -35.0589
lclavicle -2.00524e-014 1.66979e-014
lhumerus -34.8018 18.6509 68.3084
lradius 23.1764
lwrist -7.13575
lhand -26.2825 21.8002
lfingers 7.12502
lthumb 0.27292 51.7797
rfemur 0 0 0
rtibia 0
rfoot 0 0
rtoes 0
lfemur 6.0537 -9.68013 -19.8737
ltibia 8.35833
lfoot -12.4463 24.4726
ltoes -1.90145
1074
root 0.0910745 18.8888 3.64439 -2.9955 -8.48131 0.985459
lowerback 9.11359 0.520577 -3.3393
upperback 0.547979 0.28926 -1.18386
thorax -4.55501 0.197992 0.610223
lowerneck -7.00371 -7.92108 -8.07457
upperneck 15.8313 -11.1649 8.13723
head 6.8914 -5.28101 2.96486
rclavicle 3.23025e-016 1.43125e-014
rhumerus -22.0196 27.6263 -81.5152
rradius 128.712
rwrist -21.2245
rhand -38.3259 -5.87925
rfingers 7.12502
rthumb -11.3536 -35.5519
lclavicle 3.23025e-016 1.43125e-014
lhumerus -34.8603 18.6765 68.3746
lradius 23.332
lwrist -7.27261
lhand -26.1427 22.1757
lfingers 7.12502
lthumb 0.407877 52.1551
rfemur 0 0 0
rtibia 0
rfoot 0 0
rtoes 0
lfemur 6.11319 -9.70612 -20.0877
ltibia 8.28482
lfoot -12.396 24.4991
ltoes -2.15236
1075
root 0.0890011 18.888 3.64637 -2.97291 -8.483 1.02873
lowerback 9.08523 0.516591 -3.41091
upperback 0.522054 0.276882 -1.18979
thorax -4.56615 0.19368 0.645867
lowerneck -6.96495 -7.95676 -8.07185
upperneck 15.6324 -11.1896 8.07195
head 6.81918 -5.30104 2.94397
rclavicle -3.926e-015 1.98785e-015
rhumerus -22.8155 27.4532 -81.995
rradius 128.102
rwrist -21.3385
rhand -38.1956 -5.55002
rfingers 7.12502
rthumb -11.2279 -35.2296
lclavicle -3.926e-015 1.98785e-015
lhumerus -34.8771 18.7423 68.4334
lradius 23.3806
lwrist -7.48231
lhand -26.2077 21.9285
lfingers 7.12502
lthumb 0.345184 51.9079
rfemur 0 0 0
rtibia 0
rfoot 0 0
rtoes 0
lfemur 6.13228 -9.70207 -20.1278
ltibia 8.21317
lfoot -12.3842 24.5255
ltoes -2.17123
1076
root 0.0859352 18.8867 3.64756 -2.95295 -8.47075 1.01897
lowerback 9.07035 0.507949 -3.41343
upperback 0.494931 0.264686 -1.19766
thorax -4.58568 0.188169 0.640591
lowerneck -6.93461 -7.98394 -8.17786
upperneck 15.4896 -11.2217 8.17155
head 6.78301 -5.31781 2.99131
rclavicle -4.22417e-016 -1.15295e-014
rhumerus -23.6119 27.2929 -82.4838
rradius 127.385
rwrist -21.4233
rhand -38.464 -4.78394
rfingers 7.12502
rthumb -11.4868 -34.4492
lclavicle -4.22417e-016 -1.15295e-014
lhumerus -34.8673 18.7642 68.5004
lradius 23.3496
lwrist -7.49969
lhand -26.472 21.4065
lfingers 7.12502
lthumb 0.0899018 51.3862
rfemur 0 0 0
rtibia 0
rfoot 0 0
rtoes 0
lfemur 6.03585 -9.71572 -20.1048
ltibia 8.3747
lfoot -12.3825 24.5523
ltoes -2.13442
